<svg width="11" height="11" viewBox="0 0 11 11" fill="none" xmlns="http://www.w3.org/2000/svg">
<path d="M10.5417 4.58333H6.64583C6.50833 4.58333 6.41667 4.49167 6.41667 4.35417V0.458333C6.41667 0.183333 6.23333 0 5.95833 0H5.04167C4.76667 0 4.58333 0.183333 4.58333 0.458333V4.35417C4.58333 4.49167 4.49167 4.58333 4.35417 4.58333H0.458333C0.183333 4.58333 0 4.76667 0 5.04167V5.95833C0 6.23333 0.183333 6.41667 0.458333 6.41667H4.35417C4.49167 6.41667 4.58333 6.50833 4.58333 6.64583V10.5417C4.58333 10.8167 4.76667 11 5.04167 11H5.95833C6.23333 11 6.41667 10.8167 6.41667 10.5417V6.64583C6.41667 6.50833 6.50833 6.41667 6.64583 6.41667H10.5417C10.8167 6.41667 11 6.23333 11 5.95833V5.04167C11 4.76667 10.8167 4.58333 10.5417 4.58333Z" fill="white"/>
</svg>
